<?xml version="1.0" standalone="no"?>
<!DOCTYPE svg PUBLIC "-//W3C//DTD SVG 20010904//EN"
 "http://www.w3.org/TR/2001/REC-SVG-20010904/DTD/svg10.dtd">
<svg version="1.0" xmlns="http://www.w3.org/2000/svg"
 width="512.000000pt" height="512.000000pt" viewBox="0 0 512.000000 512.000000"
 preserveAspectRatio="xMidYMid meet">

<g transform="translate(0.000000,512.000000) scale(0.100000,-0.100000)"
fill="#000000" stroke="none">
<path d="M381 5100 c-91 -24 -149 -57 -221 -126 -72 -69 -115 -142 -140 -238
-18 -70 -20 -111 -20 -343 0 -155 4 -270 10 -281 5 -9 59 -190 119 -402 l109
-385 341 -818 c187 -450 344 -824 348 -831 10 -17 697 1678 760 1874 25 74 73
232 109 350 36 118 69 219 75 226 6 7 69 9 211 6 147 -3 251 0 376 13 96 9
176 14 179 12 4 -5 32 -250 28 -255 -1 -1 -64 -7 -141 -12 -76 -6 -153 -13
-170 -15 l-30 -5 -12 -108 c-7 -59 -12 -146 -12 -192 0 -47 33 -513 74 -1035
74 -948 75 -950 112 -1100 20 -83 40 -153 43 -157 3 -3 80 -14 170 -24 l163
-18 -6 -101 c-4 -55 -9 -107 -11 -115 -4 -13 -23 -14 -122 -8 -148 8 -597 8
-848 -1 -104 -3 -191 -6 -192 -5 -3 0 -31 238 -29 241 1 1 77 7 170 14 100 8
169 17 171 23 2 6 8 109 14 229 10 206 8 258 -34 1005 -25 433 -46 796 -48
807 -1 10 -152 -332 -336 -760 -183 -429 -408 -952 -499 -1162 l-164 -383 -82
0 -82 0 -381 893 -382 892 -1 -777 0 -778 25 0 c29 0 30 -12 12 -155 -8 -61
-16 -89 -25 -88 -9 2 -12 -58 -12 -270 0 -242 2 -283 20 -353 25 -96 68 -169
140 -238 73 -70 131 -102 225 -126 77 -20 111 -20 2175 -20 2070 0 2098 0
2176 20 96 25 169 68 238 140 70 73 102 131 126 225 18 69 20 111 20 367 0
158 -1 288 -2 288 -2 0 -36 -11 -77 -25 -109 -37 -238 -55 -396 -55 -342 0
-582 88 -781 285 -174 173 -279 384 -335 675 -22 111 -23 144 -30 925 -6 729
-9 821 -26 920 l-19 110 -168 25 -168 25 6 60 c18 172 17 167 40 160 11 -4
168 -9 347 -12 252 -4 374 -2 538 11 117 10 214 16 216 14 7 -6 28 -248 23
-254 -3 -3 -78 -11 -167 -18 -89 -7 -163 -15 -165 -17 -3 -2 -10 -45 -17 -94
-16 -124 -25 -1547 -10 -1702 36 -368 194 -645 433 -762 220 -107 522 -91 720
37 l38 25 0 1264 c0 1256 0 1265 -20 1270 -23 6 -24 19 -10 148 6 50 15 92 20
93 6 2 10 103 10 256 0 220 -3 263 -20 331 -24 94 -56 152 -126 225 -69 72
-142 115 -238 140 -78 20 -105 20 -2180 19 -2045 0 -2103 -1 -2175 -19z"/>
</g>
</svg>
